<svg width="42" height="42" viewBox="0 0 42 42" fill="none" xmlns="http://www.w3.org/2000/svg">
<rect width="42" height="42" rx="10" fill="white"/>
<path d="M34.074 18.3887H33V18.3333H21V23.6667H28.5353C27.436 26.7713 24.482 29 21 29C16.582 29 13 25.418 13 21C13 16.582 16.582 13 21 13C23.0393 13 24.8947 13.7693 26.3073 15.026L30.0787 11.2547C27.6973 9.03533 24.512 7.66666 21 7.66666C13.6367 7.66666 7.66667 13.6367 7.66667 21C7.66667 28.3633 13.6367 34.3333 21 34.3333C28.3633 34.3333 34.3333 28.3633 34.3333 21C34.3333 20.106 34.2413 19.2333 34.074 18.3887Z" fill="#FFC107"/>
<path d="M9.20401 14.794L13.5847 18.0067C14.77 15.072 17.6407 13 21 13C23.0393 13 24.8947 13.7693 26.3073 15.026L30.0787 11.2547C27.6973 9.03533 24.512 7.66666 21 7.66666C15.8787 7.66666 11.4373 10.558 9.20401 14.794Z" fill="#FF3D00"/>
<path d="M21 34.3333C24.444 34.3333 27.5733 33.0153 29.9393 30.872L25.8127 27.38C24.429 28.4323 22.7383 29.0014 21 29C17.532 29 14.5873 26.7887 13.478 23.7027L9.12999 27.0527C11.3367 31.3707 15.818 34.3333 21 34.3333Z" fill="#4CAF50"/>
<path d="M34.074 18.3887H33V18.3333H21V23.6667H28.5353C28.0095 25.1443 27.0622 26.4355 25.8107 27.3807L25.8127 27.3793L29.9393 30.8713C29.6473 31.1367 34.3333 27.6667 34.3333 21C34.3333 20.106 34.2413 19.2333 34.074 18.3887Z" fill="#1976D2"/>
</svg>
