<svg width="153" height="25" viewBox="0 0 153 25" fill="none" xmlns="http://www.w3.org/2000/svg">
<path d="M20.5535 1.8876C20.9918 1.9092 21.3644 2.0712 21.6713 2.3736C21.9781 2.6544 22.1316 3.0108 22.1316 3.4428V23.0448C22.1316 23.4768 21.9781 23.844 21.6713 24.1464C21.3864 24.4488 21.0028 24.6 20.5206 24.6C20.0384 24.6 19.6439 24.4596 19.337 24.1788C19.0302 23.8764 18.8768 23.4984 18.8768 23.0448V8.0436L12.4987 17.5692C12.3453 17.7636 12.148 17.9256 11.9069 18.0552C11.6877 18.1848 11.4576 18.2388 11.2165 18.2172C10.9973 18.2388 10.7672 18.1848 10.5261 18.0552C10.3069 17.9256 10.1206 17.7636 9.96719 17.5692L3.55623 7.752V23.0448C3.55623 23.4984 3.41377 23.8764 3.12884 24.1788C2.86582 24.4596 2.50418 24.6 2.04391 24.6C1.60555 24.6 1.2439 24.4596 0.958973 24.1788C0.695959 23.8764 0.564453 23.4984 0.564453 23.0448V3.4428C0.564453 3.0324 0.717879 2.676 1.02473 2.3736C1.33158 2.0496 1.71514 1.8876 2.17541 1.8876C2.43842 1.8876 2.69048 1.9524 2.93158 2.082C3.19459 2.2116 3.40281 2.3844 3.55623 2.6004L11.348 14.232L19.2384 2.6004C19.5891 2.1252 20.0275 1.8876 20.5535 1.8876ZM43.1485 7.3956C43.6088 7.3956 43.9814 7.5468 44.2664 7.8492C44.5732 8.13 44.7266 8.508 44.7266 8.9832V23.0448C44.7266 23.4768 44.5732 23.844 44.2664 24.1464C43.9814 24.4488 43.6088 24.6 43.1485 24.6C42.6883 24.6 42.3157 24.4596 42.0307 24.1788C41.7458 23.8764 41.6033 23.4984 41.6033 23.0448V22.2024C41.0335 22.9584 40.2554 23.6064 39.2691 24.1464C38.2828 24.6648 37.2198 24.924 36.0801 24.924C34.5896 24.924 33.2307 24.546 32.0033 23.79C30.7979 23.034 29.8444 21.9864 29.1431 20.6472C28.4636 19.2864 28.1239 17.7636 28.1239 16.0788C28.1239 14.394 28.4636 12.882 29.1431 11.5428C29.8444 10.182 30.7979 9.1236 32.0033 8.3676C33.2088 7.6116 34.5349 7.2336 35.9814 7.2336C37.1431 7.2336 38.217 7.4712 39.2033 7.9464C40.2116 8.4216 41.0116 9.0264 41.6033 9.7608V8.9832C41.6033 8.5296 41.7458 8.1516 42.0307 7.8492C42.3157 7.5468 42.6883 7.3956 43.1485 7.3956ZM36.4417 22.0728C37.4718 22.0728 38.3814 21.8136 39.1705 21.2952C39.9814 20.7768 40.6061 20.064 41.0444 19.1568C41.5047 18.2496 41.7349 17.2236 41.7349 16.0788C41.7349 14.9556 41.5047 13.9404 41.0444 13.0332C40.6061 12.126 39.9814 11.4132 39.1705 10.8948C38.3814 10.3548 37.4718 10.0848 36.4417 10.0848C35.4116 10.0848 34.491 10.344 33.6801 10.8624C32.891 11.3808 32.2664 12.0936 31.8061 13.0008C31.3677 13.908 31.1486 14.934 31.1486 16.0788C31.1486 17.2236 31.3677 18.2496 31.8061 19.1568C32.2664 20.064 32.891 20.7768 33.6801 21.2952C34.491 21.8136 35.4116 22.0728 36.4417 22.0728ZM59.9242 7.2336C60.4941 7.2336 60.9873 7.3848 61.4037 7.6872C61.8201 7.968 62.0284 8.3244 62.0284 8.7564C62.0284 9.2748 61.8859 9.6744 61.601 9.9552C61.3379 10.2144 61.0092 10.344 60.6147 10.344C60.4174 10.344 60.1215 10.2792 59.727 10.1496C59.2667 9.9984 58.9051 9.9228 58.6421 9.9228C57.9626 9.9228 57.2941 10.1604 56.6366 10.6356C56.001 11.0892 55.4749 11.7264 55.0585 12.5472C54.664 13.3464 54.4667 14.2428 54.4667 15.2364V23.0448C54.4667 23.4768 54.3133 23.844 54.0064 24.1464C53.7215 24.4488 53.3489 24.6 52.8886 24.6C52.4284 24.6 52.0558 24.4596 51.7708 24.1788C51.4859 23.8764 51.3434 23.4984 51.3434 23.0448V9.1776C51.3434 8.7456 51.4859 8.3784 51.7708 8.076C52.0777 7.7736 52.4503 7.6224 52.8886 7.6224C53.3489 7.6224 53.7215 7.7736 54.0064 8.076C54.3133 8.3784 54.4667 8.7456 54.4667 9.1776V10.83C54.9489 9.7716 55.6722 8.9184 56.6366 8.2704C57.601 7.6008 58.6968 7.2552 59.9242 7.2336ZM80.9681 21.9108C81.2968 22.2564 81.4612 22.6344 81.4612 23.0448C81.4612 23.4768 81.2859 23.844 80.9352 24.1464C80.6064 24.4272 80.2557 24.5676 79.8831 24.5676C79.4009 24.5676 79.0174 24.3948 78.7325 24.0492L72.2558 17.2776L70.2831 19.0272V23.0448C70.2831 23.4768 70.1297 23.844 69.8229 24.1464C69.5379 24.4488 69.1763 24.6 68.7379 24.6C68.2777 24.6 67.8941 24.4488 67.5873 24.1464C67.3023 23.844 67.1599 23.4768 67.1599 23.0448V2.1792C67.1599 1.7472 67.3023 1.38 67.5873 1.0776C67.8941 0.775204 68.2777 0.624004 68.7379 0.624004C69.1763 0.624004 69.5379 0.775204 69.8229 1.0776C70.1297 1.38 70.2831 1.7472 70.2831 2.1792V15.3336L78.3379 8.0436C78.7105 7.7196 79.0941 7.5576 79.4886 7.5576C79.8612 7.5576 80.201 7.7196 80.5078 8.0436C80.8147 8.346 80.9681 8.67 80.9681 9.0156C80.9681 9.4476 80.7598 9.8364 80.3434 10.182L74.6557 15.1716L80.9681 21.9108ZM101.49 15.4632C101.469 15.852 101.304 16.1868 100.997 16.4676C100.69 16.7268 100.329 16.8564 99.9124 16.8564H88.3398C88.4932 18.4332 89.0959 19.6968 90.148 20.6472C91.222 21.5976 92.5261 22.0728 94.0603 22.0728C95.1124 22.0728 95.9671 21.9216 96.6247 21.6192C97.2822 21.3168 97.863 20.928 98.3672 20.4528C98.6959 20.2584 99.0137 20.1612 99.3206 20.1612C99.6932 20.1612 100 20.2908 100.241 20.55C100.504 20.8092 100.636 21.1116 100.636 21.4572C100.636 21.9108 100.416 22.3212 99.9781 22.6884C99.3425 23.3148 98.4987 23.844 97.4466 24.276C96.3946 24.708 95.3206 24.924 94.2247 24.924C92.4493 24.924 90.8822 24.5568 89.5233 23.8224C88.1863 23.088 87.1452 22.062 86.4 20.7444C85.6767 19.4268 85.3151 17.9364 85.3151 16.2732C85.3151 14.4588 85.6877 12.8712 86.4329 11.5104C87.2 10.128 88.1973 9.0696 89.4247 8.33521C90.674 7.6008 92.011 7.2336 93.4357 7.2336C94.8384 7.2336 96.1535 7.59 97.3809 8.3028C98.6082 9.0156 99.5946 9.9984 100.34 11.2512C101.085 12.504 101.469 13.908 101.49 15.4632ZM93.4357 10.0848C92.2083 10.0848 91.1452 10.4304 90.2466 11.1216C89.348 11.7912 88.7562 12.8388 88.4713 14.2644H98.1699V14.0052C98.0603 12.8604 97.5343 11.9208 96.5918 11.1864C95.6713 10.452 94.6192 10.0848 93.4357 10.0848ZM111.758 10.6356V20.2908C111.758 21.3708 112.251 21.9108 113.237 21.9108C113.391 21.9108 113.599 21.8784 113.862 21.8136C114.125 21.7272 114.333 21.684 114.487 21.684C114.772 21.684 115.013 21.8028 115.21 22.0404C115.407 22.278 115.506 22.5804 115.506 22.9476C115.506 23.4012 115.243 23.79 114.717 24.114C114.191 24.438 113.599 24.6 112.942 24.6C112.218 24.6 111.55 24.5244 110.936 24.3732C110.344 24.222 109.807 23.844 109.325 23.2392C108.865 22.6128 108.635 21.6732 108.635 20.4204V10.6356H106.728C106.311 10.6356 105.961 10.506 105.676 10.2468C105.413 9.966 105.281 9.6204 105.281 9.21C105.281 8.7996 105.413 8.4648 105.676 8.2056C105.961 7.9464 106.311 7.8168 106.728 7.8168H108.635V5.0952C108.635 4.6632 108.777 4.296 109.062 3.9936C109.369 3.6912 109.753 3.54 110.213 3.54C110.651 3.54 111.013 3.6912 111.298 3.9936C111.605 4.296 111.758 4.6632 111.758 5.0952V7.8168H114.487C114.903 7.8168 115.243 7.9572 115.506 8.238C115.791 8.4972 115.933 8.832 115.933 9.2424C115.933 9.6528 115.791 9.9876 115.506 10.2468C115.243 10.506 114.903 10.6356 114.487 10.6356H111.758ZM136.514 15.4632C136.492 15.852 136.328 16.1868 136.021 16.4676C135.714 16.7268 135.353 16.8564 134.936 16.8564H123.363C123.517 18.4332 124.12 19.6968 125.172 20.6472C126.246 21.5976 127.55 22.0728 129.084 22.0728C130.136 22.0728 130.991 21.9216 131.648 21.6192C132.306 21.3168 132.887 20.928 133.391 20.4528C133.72 20.2584 134.037 20.1612 134.344 20.1612C134.717 20.1612 135.024 20.2908 135.265 20.55C135.528 20.8092 135.659 21.1116 135.659 21.4572C135.659 21.9108 135.44 22.3212 135.002 22.6884C134.366 23.3148 133.522 23.844 132.47 24.276C131.418 24.708 130.344 24.924 129.248 24.924C127.473 24.924 125.906 24.5568 124.547 23.8224C123.21 23.088 122.169 22.062 121.424 20.7444C120.7 19.4268 120.339 17.9364 120.339 16.2732C120.339 14.4588 120.711 12.8712 121.457 11.5104C122.224 10.128 123.221 9.0696 124.448 8.33521C125.698 7.6008 127.035 7.2336 128.459 7.2336C129.862 7.2336 131.177 7.59 132.405 8.3028C133.632 9.0156 134.618 9.9984 135.363 11.2512C136.109 12.504 136.492 13.908 136.514 15.4632ZM128.459 10.0848C127.232 10.0848 126.169 10.4304 125.27 11.1216C124.372 11.7912 123.78 12.8388 123.495 14.2644H133.194V14.0052C133.084 12.8604 132.558 11.9208 131.616 11.1864C130.695 10.452 129.643 10.0848 128.459 10.0848ZM150.695 7.2336C151.265 7.2336 151.758 7.3848 152.174 7.6872C152.591 7.968 152.799 8.3244 152.799 8.7564C152.799 9.2748 152.657 9.6744 152.372 9.9552C152.109 10.2144 151.78 10.344 151.385 10.344C151.188 10.344 150.892 10.2792 150.498 10.1496C150.037 9.9984 149.676 9.9228 149.413 9.9228C148.733 9.9228 148.065 10.1604 147.407 10.6356C146.772 11.0892 146.246 11.7264 145.829 12.5472C145.435 13.3464 145.237 14.2428 145.237 15.2364V23.0448C145.237 23.4768 145.084 23.844 144.777 24.1464C144.492 24.4488 144.12 24.6 143.659 24.6C143.199 24.6 142.826 24.4596 142.542 24.1788C142.257 23.8764 142.114 23.4984 142.114 23.0448V9.1776C142.114 8.7456 142.257 8.3784 142.542 8.076C142.848 7.7736 143.221 7.6224 143.659 7.6224C144.12 7.6224 144.492 7.7736 144.777 8.076C145.084 8.3784 145.237 8.7456 145.237 9.1776V10.83C145.72 9.7716 146.443 8.9184 147.407 8.2704C148.372 7.6008 149.468 7.2552 150.695 7.2336Z" fill="black"/>
</svg>
