<svg width="200" height="36" viewBox="0 0 200 36" fill="none" xmlns="http://www.w3.org/2000/svg">
<path d="M28.3103 7.65H28.3104C29.3215 7.64985 30.2973 8.0171 31.0509 8.68152C31.7319 9.28188 32.1884 10.0868 32.3528 10.967L18.2646 19.1339L4.17651 10.967C4.34085 10.0868 4.79729 9.28188 5.47828 8.68152C6.23193 8.0171 7.20769 7.64985 8.21889 7.65H8.21896H28.3103ZM18.9605 21.8634L32.4199 14.0584V26.1C32.4199 27.1742 31.9869 28.2043 31.2162 28.9638C30.4455 29.7233 29.4002 30.15 28.3103 30.15H8.21896C7.12903 30.15 6.08374 29.7233 5.31305 28.9638C4.54235 28.2043 4.10938 27.1742 4.10938 26.1V14.0584L17.5687 21.8634C17.7796 21.9859 18.0199 22.0505 18.2646 22.0505C18.5094 22.0505 18.7496 21.9859 18.9605 21.8634Z" fill="url(#paint0_linear)" stroke="url(#paint1_linear)"/>
<path d="M28.2832 7.65H28.2833C29.2945 7.64985 30.2702 8.0171 31.0239 8.68152C31.7048 9.28188 32.1613 10.0868 32.3257 10.967L18.2375 19.1339L4.14941 10.967C4.31376 10.0868 4.7702 9.28188 5.45119 8.68152C6.20484 8.0171 7.1806 7.64985 8.1918 7.65H8.19187H28.2832Z" fill="url(#paint2_linear)" stroke="url(#paint3_linear)"/>
<path d="M66.5535 7.8876C66.9918 7.9092 67.3644 8.0712 67.6713 8.3736C67.9781 8.6544 68.1316 9.0108 68.1316 9.4428V29.0448C68.1316 29.4768 67.9781 29.844 67.6713 30.1464C67.3864 30.4488 67.0028 30.6 66.5206 30.6C66.0384 30.6 65.6439 30.4596 65.337 30.1788C65.0302 29.8764 64.8768 29.4984 64.8768 29.0448V14.0436L58.4987 23.5692C58.3453 23.7636 58.148 23.9256 57.9069 24.0552C57.6877 24.1848 57.4576 24.2388 57.2165 24.2172C56.9973 24.2388 56.7672 24.1848 56.5261 24.0552C56.3069 23.9256 56.1206 23.7636 55.9672 23.5692L49.5562 13.752V29.0448C49.5562 29.4984 49.4138 29.8764 49.1288 30.1788C48.8658 30.4596 48.5042 30.6 48.0439 30.6C47.6056 30.6 47.2439 30.4596 46.959 30.1788C46.696 29.8764 46.5645 29.4984 46.5645 29.0448V9.4428C46.5645 9.0324 46.7179 8.676 47.0247 8.3736C47.3316 8.0496 47.7151 7.8876 48.1754 7.8876C48.4384 7.8876 48.6905 7.9524 48.9316 8.082C49.1946 8.2116 49.4028 8.3844 49.5562 8.6004L57.348 20.232L65.2384 8.6004C65.5891 8.1252 66.0275 7.8876 66.5535 7.8876ZM89.1485 13.3956C89.6088 13.3956 89.9814 13.5468 90.2664 13.8492C90.5732 14.13 90.7266 14.508 90.7266 14.9832V29.0448C90.7266 29.4768 90.5732 29.844 90.2664 30.1464C89.9814 30.4488 89.6088 30.6 89.1485 30.6C88.6883 30.6 88.3157 30.4596 88.0307 30.1788C87.7458 29.8764 87.6033 29.4984 87.6033 29.0448V28.2024C87.0335 28.9584 86.2554 29.6064 85.2691 30.1464C84.2828 30.6648 83.2198 30.924 82.0801 30.924C80.5896 30.924 79.2307 30.546 78.0033 29.79C76.7979 29.034 75.8444 27.9864 75.1431 26.6472C74.4636 25.2864 74.1239 23.7636 74.1239 22.0788C74.1239 20.394 74.4636 18.882 75.1431 17.5428C75.8444 16.182 76.7979 15.1236 78.0033 14.3676C79.2088 13.6116 80.5349 13.2336 81.9814 13.2336C83.1431 13.2336 84.217 13.4712 85.2033 13.9464C86.2116 14.4216 87.0116 15.0264 87.6033 15.7608V14.9832C87.6033 14.5296 87.7458 14.1516 88.0307 13.8492C88.3157 13.5468 88.6883 13.3956 89.1485 13.3956ZM82.4417 28.0728C83.4718 28.0728 84.3814 27.8136 85.1705 27.2952C85.9814 26.7768 86.6061 26.064 87.0444 25.1568C87.5047 24.2496 87.7349 23.2236 87.7349 22.0788C87.7349 20.9556 87.5047 19.9404 87.0444 19.0332C86.6061 18.126 85.9814 17.4132 85.1705 16.8948C84.3814 16.3548 83.4718 16.0848 82.4417 16.0848C81.4116 16.0848 80.491 16.344 79.6801 16.8624C78.891 17.3808 78.2664 18.0936 77.8061 19.0008C77.3677 19.908 77.1486 20.934 77.1486 22.0788C77.1486 23.2236 77.3677 24.2496 77.8061 25.1568C78.2664 26.064 78.891 26.7768 79.6801 27.2952C80.491 27.8136 81.4116 28.0728 82.4417 28.0728ZM105.924 13.2336C106.494 13.2336 106.987 13.3848 107.404 13.6872C107.82 13.968 108.028 14.3244 108.028 14.7564C108.028 15.2748 107.886 15.6744 107.601 15.9552C107.338 16.2144 107.009 16.344 106.615 16.344C106.417 16.344 106.122 16.2792 105.727 16.1496C105.267 15.9984 104.905 15.9228 104.642 15.9228C103.963 15.9228 103.294 16.1604 102.637 16.6356C102.001 17.0892 101.475 17.7264 101.058 18.5472C100.664 19.3464 100.467 20.2428 100.467 21.2364V29.0448C100.467 29.4768 100.313 29.844 100.006 30.1464C99.7215 30.4488 99.3489 30.6 98.8886 30.6C98.4284 30.6 98.0558 30.4596 97.7708 30.1788C97.4859 29.8764 97.3434 29.4984 97.3434 29.0448V15.1776C97.3434 14.7456 97.4859 14.3784 97.7708 14.076C98.0777 13.7736 98.4503 13.6224 98.8886 13.6224C99.3489 13.6224 99.7215 13.7736 100.006 14.076C100.313 14.3784 100.467 14.7456 100.467 15.1776V16.83C100.949 15.7716 101.672 14.9184 102.637 14.2704C103.601 13.6008 104.697 13.2552 105.924 13.2336ZM126.968 27.9108C127.297 28.2564 127.461 28.6344 127.461 29.0448C127.461 29.4768 127.286 29.844 126.935 30.1464C126.606 30.4272 126.256 30.5676 125.883 30.5676C125.401 30.5676 125.017 30.3948 124.732 30.0492L118.256 23.2776L116.283 25.0272V29.0448C116.283 29.4768 116.13 29.844 115.823 30.1464C115.538 30.4488 115.176 30.6 114.738 30.6C114.278 30.6 113.894 30.4488 113.587 30.1464C113.302 29.844 113.16 29.4768 113.16 29.0448V8.1792C113.16 7.7472 113.302 7.38 113.587 7.0776C113.894 6.7752 114.278 6.624 114.738 6.624C115.176 6.624 115.538 6.7752 115.823 7.0776C116.13 7.38 116.283 7.7472 116.283 8.1792V21.3336L124.338 14.0436C124.711 13.7196 125.094 13.5576 125.489 13.5576C125.861 13.5576 126.201 13.7196 126.508 14.0436C126.815 14.346 126.968 14.67 126.968 15.0156C126.968 15.4476 126.76 15.8364 126.343 16.182L120.656 21.1716L126.968 27.9108ZM147.49 21.4632C147.469 21.852 147.304 22.1868 146.997 22.4676C146.69 22.7268 146.329 22.8564 145.912 22.8564H134.34C134.493 24.4332 135.096 25.6968 136.148 26.6472C137.222 27.5976 138.526 28.0728 140.06 28.0728C141.112 28.0728 141.967 27.9216 142.625 27.6192C143.282 27.3168 143.863 26.928 144.367 26.4528C144.696 26.2584 145.014 26.1612 145.321 26.1612C145.693 26.1612 146 26.2908 146.241 26.55C146.504 26.8092 146.636 27.1116 146.636 27.4572C146.636 27.9108 146.416 28.3212 145.978 28.6884C145.342 29.3148 144.499 29.844 143.447 30.276C142.395 30.708 141.321 30.924 140.225 30.924C138.449 30.924 136.882 30.5568 135.523 29.8224C134.186 29.088 133.145 28.062 132.4 26.7444C131.677 25.4268 131.315 23.9364 131.315 22.2732C131.315 20.4588 131.688 18.8712 132.433 17.5104C133.2 16.128 134.197 15.0696 135.425 14.3352C136.674 13.6008 138.011 13.2336 139.436 13.2336C140.838 13.2336 142.153 13.59 143.381 14.3028C144.608 15.0156 145.595 15.9984 146.34 17.2512C147.085 18.504 147.469 19.908 147.49 21.4632ZM139.436 16.0848C138.208 16.0848 137.145 16.4304 136.247 17.1216C135.348 17.7912 134.756 18.8388 134.471 20.2644H144.17V20.0052C144.06 18.8604 143.534 17.9208 142.592 17.1864C141.671 16.452 140.619 16.0848 139.436 16.0848ZM157.758 16.6356V26.2908C157.758 27.3708 158.251 27.9108 159.237 27.9108C159.391 27.9108 159.599 27.8784 159.862 27.8136C160.125 27.7272 160.333 27.684 160.487 27.684C160.772 27.684 161.013 27.8028 161.21 28.0404C161.407 28.278 161.506 28.5804 161.506 28.9476C161.506 29.4012 161.243 29.79 160.717 30.114C160.191 30.438 159.599 30.6 158.942 30.6C158.218 30.6 157.55 30.5244 156.936 30.3732C156.344 30.222 155.807 29.844 155.325 29.2392C154.865 28.6128 154.635 27.6732 154.635 26.4204V16.6356H152.728C152.311 16.6356 151.961 16.506 151.676 16.2468C151.413 15.966 151.281 15.6204 151.281 15.21C151.281 14.7996 151.413 14.4648 151.676 14.2056C151.961 13.9464 152.311 13.8168 152.728 13.8168H154.635V11.0952C154.635 10.6632 154.777 10.296 155.062 9.9936C155.369 9.6912 155.753 9.54 156.213 9.54C156.651 9.54 157.013 9.6912 157.298 9.9936C157.605 10.296 157.758 10.6632 157.758 11.0952V13.8168H160.487C160.903 13.8168 161.243 13.9572 161.506 14.238C161.791 14.4972 161.933 14.832 161.933 15.2424C161.933 15.6528 161.791 15.9876 161.506 16.2468C161.243 16.506 160.903 16.6356 160.487 16.6356H157.758ZM182.514 21.4632C182.492 21.852 182.328 22.1868 182.021 22.4676C181.714 22.7268 181.353 22.8564 180.936 22.8564H169.363C169.517 24.4332 170.12 25.6968 171.172 26.6472C172.246 27.5976 173.55 28.0728 175.084 28.0728C176.136 28.0728 176.991 27.9216 177.648 27.6192C178.306 27.3168 178.887 26.928 179.391 26.4528C179.72 26.2584 180.037 26.1612 180.344 26.1612C180.717 26.1612 181.024 26.2908 181.265 26.55C181.528 26.8092 181.659 27.1116 181.659 27.4572C181.659 27.9108 181.44 28.3212 181.002 28.6884C180.366 29.3148 179.522 29.844 178.47 30.276C177.418 30.708 176.344 30.924 175.248 30.924C173.473 30.924 171.906 30.5568 170.547 29.8224C169.21 29.088 168.169 28.062 167.424 26.7444C166.7 25.4268 166.339 23.9364 166.339 22.2732C166.339 20.4588 166.711 18.8712 167.457 17.5104C168.224 16.128 169.221 15.0696 170.448 14.3352C171.698 13.6008 173.035 13.2336 174.459 13.2336C175.862 13.2336 177.177 13.59 178.405 14.3028C179.632 15.0156 180.618 15.9984 181.363 17.2512C182.109 18.504 182.492 19.908 182.514 21.4632ZM174.459 16.0848C173.232 16.0848 172.169 16.4304 171.27 17.1216C170.372 17.7912 169.78 18.8388 169.495 20.2644H179.194V20.0052C179.084 18.8604 178.558 17.9208 177.616 17.1864C176.695 16.452 175.643 16.0848 174.459 16.0848ZM196.695 13.2336C197.265 13.2336 197.758 13.3848 198.174 13.6872C198.591 13.968 198.799 14.3244 198.799 14.7564C198.799 15.2748 198.657 15.6744 198.372 15.9552C198.109 16.2144 197.78 16.344 197.385 16.344C197.188 16.344 196.892 16.2792 196.498 16.1496C196.037 15.9984 195.676 15.9228 195.413 15.9228C194.733 15.9228 194.065 16.1604 193.407 16.6356C192.772 17.0892 192.246 17.7264 191.829 18.5472C191.435 19.3464 191.237 20.2428 191.237 21.2364V29.0448C191.237 29.4768 191.084 29.844 190.777 30.1464C190.492 30.4488 190.12 30.6 189.659 30.6C189.199 30.6 188.826 30.4596 188.542 30.1788C188.257 29.8764 188.114 29.4984 188.114 29.0448V15.1776C188.114 14.7456 188.257 14.3784 188.542 14.076C188.848 13.7736 189.221 13.6224 189.659 13.6224C190.12 13.6224 190.492 13.7736 190.777 14.076C191.084 14.3784 191.237 14.7456 191.237 15.1776V16.83C191.72 15.7716 192.443 14.9184 193.407 14.2704C194.372 13.6008 195.468 13.2552 196.695 13.2336Z" fill="black"/>
<defs>
<linearGradient id="paint0_linear" x1="18.2646" y1="7.2" x2="18.2646" y2="30.6" gradientUnits="userSpaceOnUse">
<stop stop-color="#8F1FC4"/>
<stop offset="1" stop-color="#5F048A"/>
</linearGradient>
<linearGradient id="paint1_linear" x1="18.2646" y1="7.2" x2="18.2646" y2="30.6" gradientUnits="userSpaceOnUse">
<stop stop-color="#8F1FC4"/>
<stop offset="1" stop-color="#5F048A"/>
</linearGradient>
<linearGradient id="paint2_linear" x1="18.2375" y1="7.2" x2="18.2375" y2="19.656" gradientUnits="userSpaceOnUse">
<stop stop-color="#FFC700"/>
<stop offset="1" stop-color="#D1A402"/>
</linearGradient>
<linearGradient id="paint3_linear" x1="18.2375" y1="7.2" x2="18.2375" y2="19.656" gradientUnits="userSpaceOnUse">
<stop stop-color="#FFC700"/>
<stop offset="1" stop-color="#D1A402"/>
</linearGradient>
</defs>
</svg>
